<?xml version="1.0" encoding="UTF-8"?>
<svg width="32" height="32" viewBox="0 0 32 32" fill="none" xmlns="http://www.w3.org/2000/svg">
  <rect width="32" height="32" rx="8" fill="#3B82F6"/>
  <path d="M8 16C8 11.5817 11.5817 8 16 8C20.4183 8 24 11.5817 24 16C24 20.4183 20.4183 24 16 24C13.9318 24 12.0386 23.2076 10.5859 21.8995L8.26795 22.7321C8.10128 22.7898 7.92089 22.7098 7.84776 22.5488C7.80117 22.4479 7.80193 22.3339 7.84995 22.2321L9.07615 19.5853C8.39731 18.5161 8 17.2545 8 16Z" fill="white"/>
  <circle cx="11.5" cy="16" r="1.5" fill="#3B82F6"/>
  <circle cx="16" cy="16" r="1.5" fill="#3B82F6"/>
  <circle cx="20.5" cy="16" r="1.5" fill="#3B82F6"/>
</svg>
